<mxfile host="app.diagrams.net" modified="2023-07-25T20:16:15.426Z" agent="Mozilla/5.0 (Windows NT 10.0; Win64; x64) AppleWebKit/537.36 (KHTML, like Gecko) Chrome/114.0.0.0 Safari/537.36" etag="zoEg-pRVPV4GlcVQbnyo" version="21.6.5" type="device" pages="6">
  <diagram name="Exercicio 1.1" id="ITK8CiDFNCDJeBptkkHk">
    <mxGraphModel dx="1047" dy="581" grid="1" gridSize="10" guides="1" tooltips="1" connect="1" arrows="1" fold="1" page="1" pageScale="1" pageWidth="827" pageHeight="1169" math="0" shadow="0">
      <root>
        <mxCell id="0" />
        <mxCell id="1" parent="0" />
        <mxCell id="mxID1eUkBbuD5ef9H6zq-1" value="Construa a modelagem que represente pessoas e seus dados, observando que:&#xa;&#xa;&#xa;- uma pessoa pode ter vários telefones e vários emails, porém, pode possuir somente uma CNH." style="text;whiteSpace=wrap;" parent="1" vertex="1">
          <mxGeometry x="20" y="30" width="560" height="80" as="geometry" />
        </mxCell>
        <mxCell id="mxID1eUkBbuD5ef9H6zq-2" value="Pessoa" style="rounded=0;whiteSpace=wrap;html=1;" parent="1" vertex="1">
          <mxGeometry x="100" y="270" width="120" height="60" as="geometry" />
        </mxCell>
        <mxCell id="mxID1eUkBbuD5ef9H6zq-3" value="Email" style="rounded=0;whiteSpace=wrap;html=1;" parent="1" vertex="1">
          <mxGeometry x="390" y="270" width="120" height="60" as="geometry" />
        </mxCell>
        <mxCell id="mxID1eUkBbuD5ef9H6zq-10" style="edgeStyle=orthogonalEdgeStyle;rounded=0;orthogonalLoop=1;jettySize=auto;html=1;endArrow=none;endFill=0;" parent="1" source="mxID1eUkBbuD5ef9H6zq-4" target="mxID1eUkBbuD5ef9H6zq-6" edge="1">
          <mxGeometry relative="1" as="geometry" />
        </mxCell>
        <mxCell id="mxID1eUkBbuD5ef9H6zq-4" value="Telefone" style="rounded=0;whiteSpace=wrap;html=1;" parent="1" vertex="1">
          <mxGeometry x="100" y="480" width="120" height="60" as="geometry" />
        </mxCell>
        <mxCell id="mxID1eUkBbuD5ef9H6zq-7" style="edgeStyle=orthogonalEdgeStyle;rounded=0;orthogonalLoop=1;jettySize=auto;html=1;entryX=1;entryY=0.5;entryDx=0;entryDy=0;endArrow=none;endFill=0;" parent="1" source="mxID1eUkBbuD5ef9H6zq-5" target="mxID1eUkBbuD5ef9H6zq-2" edge="1">
          <mxGeometry relative="1" as="geometry" />
        </mxCell>
        <mxCell id="mxID1eUkBbuD5ef9H6zq-8" style="edgeStyle=orthogonalEdgeStyle;rounded=0;orthogonalLoop=1;jettySize=auto;html=1;entryX=0;entryY=0.5;entryDx=0;entryDy=0;endArrow=none;endFill=0;" parent="1" source="mxID1eUkBbuD5ef9H6zq-5" target="mxID1eUkBbuD5ef9H6zq-3" edge="1">
          <mxGeometry relative="1" as="geometry" />
        </mxCell>
        <mxCell id="mxID1eUkBbuD5ef9H6zq-5" value="Possui" style="rhombus;whiteSpace=wrap;html=1;" parent="1" vertex="1">
          <mxGeometry x="260" y="260" width="80" height="80" as="geometry" />
        </mxCell>
        <mxCell id="mxID1eUkBbuD5ef9H6zq-9" style="edgeStyle=orthogonalEdgeStyle;rounded=0;orthogonalLoop=1;jettySize=auto;html=1;entryX=0.5;entryY=1;entryDx=0;entryDy=0;endArrow=none;endFill=0;" parent="1" source="mxID1eUkBbuD5ef9H6zq-6" target="mxID1eUkBbuD5ef9H6zq-2" edge="1">
          <mxGeometry relative="1" as="geometry" />
        </mxCell>
        <mxCell id="mxID1eUkBbuD5ef9H6zq-6" value="Possui" style="rhombus;whiteSpace=wrap;html=1;" parent="1" vertex="1">
          <mxGeometry x="120" y="360" width="80" height="80" as="geometry" />
        </mxCell>
        <mxCell id="mxID1eUkBbuD5ef9H6zq-11" value="1" style="text;html=1;align=center;verticalAlign=middle;resizable=0;points=[];autosize=1;strokeColor=none;fillColor=none;" parent="1" vertex="1">
          <mxGeometry x="212" y="260" width="30" height="30" as="geometry" />
        </mxCell>
        <mxCell id="mxID1eUkBbuD5ef9H6zq-12" value="N" style="text;html=1;align=center;verticalAlign=middle;resizable=0;points=[];autosize=1;strokeColor=none;fillColor=none;" parent="1" vertex="1">
          <mxGeometry x="360" y="260" width="30" height="30" as="geometry" />
        </mxCell>
        <mxCell id="mxID1eUkBbuD5ef9H6zq-13" value="N" style="text;html=1;align=center;verticalAlign=middle;resizable=0;points=[];autosize=1;strokeColor=none;fillColor=none;" parent="1" vertex="1">
          <mxGeometry x="220" y="470" width="30" height="30" as="geometry" />
        </mxCell>
        <mxCell id="mxID1eUkBbuD5ef9H6zq-14" value="1" style="text;html=1;align=center;verticalAlign=middle;resizable=0;points=[];autosize=1;strokeColor=none;fillColor=none;" parent="1" vertex="1">
          <mxGeometry x="160" y="331" width="30" height="30" as="geometry" />
        </mxCell>
        <mxCell id="mxID1eUkBbuD5ef9H6zq-17" style="edgeStyle=orthogonalEdgeStyle;rounded=0;orthogonalLoop=1;jettySize=auto;html=1;endArrow=none;endFill=0;" parent="1" source="mxID1eUkBbuD5ef9H6zq-15" target="mxID1eUkBbuD5ef9H6zq-2" edge="1">
          <mxGeometry relative="1" as="geometry" />
        </mxCell>
        <mxCell id="mxID1eUkBbuD5ef9H6zq-15" value="CNH" style="ellipse;whiteSpace=wrap;html=1;" parent="1" vertex="1">
          <mxGeometry x="115" y="200" width="90" height="30" as="geometry" />
        </mxCell>
      </root>
    </mxGraphModel>
  </diagram>
  <diagram id="c81_uixwv7pDdwEkA7s6" name="Exercício 1.2 ">
    <mxGraphModel dx="1047" dy="581" grid="1" gridSize="10" guides="1" tooltips="1" connect="1" arrows="1" fold="1" page="1" pageScale="1" pageWidth="827" pageHeight="1169" math="0" shadow="0">
      <root>
        <mxCell id="0" />
        <mxCell id="1" parent="0" />
        <mxCell id="ZP-LaagBrDPjH0wxboex-1" value="Construa o Modelo Entidade Relacionamento considerando o seguinte cenário:&#xa;&#xa;&#xa;- uma empresa possui vários veículos&#xa;- um veículo possui marca(gm, ford, fiat), modelo(onix, fiesta, argo) e placa&#xa;- um cliente (cpf, nome) aluga um ou mais veículos" style="text;whiteSpace=wrap;" parent="1" vertex="1">
          <mxGeometry x="10" y="20" width="450" height="110" as="geometry" />
        </mxCell>
        <mxCell id="-k5jXAy_fNaahpjlZTcm-10" style="edgeStyle=orthogonalEdgeStyle;rounded=0;orthogonalLoop=1;jettySize=auto;html=1;entryX=0.5;entryY=0;entryDx=0;entryDy=0;endArrow=none;endFill=0;" parent="1" source="-k5jXAy_fNaahpjlZTcm-1" target="-k5jXAy_fNaahpjlZTcm-9" edge="1">
          <mxGeometry relative="1" as="geometry" />
        </mxCell>
        <mxCell id="-k5jXAy_fNaahpjlZTcm-1" value="Empresa" style="rounded=0;whiteSpace=wrap;html=1;" parent="1" vertex="1">
          <mxGeometry x="364" y="190" width="120" height="60" as="geometry" />
        </mxCell>
        <mxCell id="-k5jXAy_fNaahpjlZTcm-2" value="Marca" style="rounded=0;whiteSpace=wrap;html=1;" parent="1" vertex="1">
          <mxGeometry x="684" y="480" width="120" height="60" as="geometry" />
        </mxCell>
        <mxCell id="-k5jXAy_fNaahpjlZTcm-3" value="Modelo" style="rounded=0;whiteSpace=wrap;html=1;" parent="1" vertex="1">
          <mxGeometry x="24" y="480" width="120" height="60" as="geometry" />
        </mxCell>
        <mxCell id="-k5jXAy_fNaahpjlZTcm-13" style="edgeStyle=orthogonalEdgeStyle;rounded=0;orthogonalLoop=1;jettySize=auto;html=1;endArrow=none;endFill=0;" parent="1" source="-k5jXAy_fNaahpjlZTcm-4" target="-k5jXAy_fNaahpjlZTcm-12" edge="1">
          <mxGeometry relative="1" as="geometry" />
        </mxCell>
        <mxCell id="-k5jXAy_fNaahpjlZTcm-16" style="edgeStyle=orthogonalEdgeStyle;rounded=0;orthogonalLoop=1;jettySize=auto;html=1;entryX=1;entryY=0.5;entryDx=0;entryDy=0;endArrow=none;endFill=0;" parent="1" source="-k5jXAy_fNaahpjlZTcm-4" target="-k5jXAy_fNaahpjlZTcm-15" edge="1">
          <mxGeometry relative="1" as="geometry" />
        </mxCell>
        <mxCell id="-k5jXAy_fNaahpjlZTcm-21" style="edgeStyle=orthogonalEdgeStyle;rounded=0;orthogonalLoop=1;jettySize=auto;html=1;entryX=0.5;entryY=0;entryDx=0;entryDy=0;endArrow=none;endFill=0;" parent="1" source="-k5jXAy_fNaahpjlZTcm-4" target="-k5jXAy_fNaahpjlZTcm-20" edge="1">
          <mxGeometry relative="1" as="geometry" />
        </mxCell>
        <mxCell id="-k5jXAy_fNaahpjlZTcm-4" value="Veiculo" style="rounded=0;whiteSpace=wrap;html=1;" parent="1" vertex="1">
          <mxGeometry x="364" y="480" width="120" height="60" as="geometry" />
        </mxCell>
        <mxCell id="-k5jXAy_fNaahpjlZTcm-5" value="Aluguel" style="rounded=0;whiteSpace=wrap;html=1;" parent="1" vertex="1">
          <mxGeometry x="364" y="730" width="120" height="60" as="geometry" />
        </mxCell>
        <mxCell id="-k5jXAy_fNaahpjlZTcm-19" style="edgeStyle=orthogonalEdgeStyle;rounded=0;orthogonalLoop=1;jettySize=auto;html=1;entryX=1;entryY=0;entryDx=0;entryDy=0;endArrow=none;endFill=0;" parent="1" source="-k5jXAy_fNaahpjlZTcm-6" target="-k5jXAy_fNaahpjlZTcm-4" edge="1">
          <mxGeometry relative="1" as="geometry" />
        </mxCell>
        <mxCell id="-k5jXAy_fNaahpjlZTcm-6" value="Placa" style="ellipse;whiteSpace=wrap;html=1;" parent="1" vertex="1">
          <mxGeometry x="444" y="420" width="80" height="30" as="geometry" />
        </mxCell>
        <mxCell id="-k5jXAy_fNaahpjlZTcm-34" style="edgeStyle=orthogonalEdgeStyle;rounded=0;orthogonalLoop=1;jettySize=auto;html=1;entryX=0.5;entryY=1;entryDx=0;entryDy=0;endArrow=none;endFill=0;" parent="1" source="-k5jXAy_fNaahpjlZTcm-7" target="-k5jXAy_fNaahpjlZTcm-27" edge="1">
          <mxGeometry relative="1" as="geometry" />
        </mxCell>
        <mxCell id="-k5jXAy_fNaahpjlZTcm-7" value="CPF" style="ellipse;whiteSpace=wrap;html=1;" parent="1" vertex="1">
          <mxGeometry x="334" y="1050" width="80" height="30" as="geometry" />
        </mxCell>
        <mxCell id="-k5jXAy_fNaahpjlZTcm-33" style="edgeStyle=orthogonalEdgeStyle;rounded=0;orthogonalLoop=1;jettySize=auto;html=1;entryX=0.5;entryY=1;entryDx=0;entryDy=0;endArrow=none;endFill=0;" parent="1" source="-k5jXAy_fNaahpjlZTcm-8" target="-k5jXAy_fNaahpjlZTcm-27" edge="1">
          <mxGeometry relative="1" as="geometry" />
        </mxCell>
        <mxCell id="-k5jXAy_fNaahpjlZTcm-8" value="Nome" style="ellipse;whiteSpace=wrap;html=1;" parent="1" vertex="1">
          <mxGeometry x="434" y="1050" width="80" height="30" as="geometry" />
        </mxCell>
        <mxCell id="-k5jXAy_fNaahpjlZTcm-11" style="edgeStyle=orthogonalEdgeStyle;rounded=0;orthogonalLoop=1;jettySize=auto;html=1;entryX=0.5;entryY=0;entryDx=0;entryDy=0;endArrow=none;endFill=0;" parent="1" source="-k5jXAy_fNaahpjlZTcm-9" target="-k5jXAy_fNaahpjlZTcm-4" edge="1">
          <mxGeometry relative="1" as="geometry" />
        </mxCell>
        <mxCell id="-k5jXAy_fNaahpjlZTcm-9" value="Possui" style="rhombus;whiteSpace=wrap;html=1;" parent="1" vertex="1">
          <mxGeometry x="384" y="320" width="80" height="80" as="geometry" />
        </mxCell>
        <mxCell id="-k5jXAy_fNaahpjlZTcm-14" style="edgeStyle=orthogonalEdgeStyle;rounded=0;orthogonalLoop=1;jettySize=auto;html=1;entryX=0;entryY=0.5;entryDx=0;entryDy=0;endArrow=none;endFill=0;" parent="1" source="-k5jXAy_fNaahpjlZTcm-12" target="-k5jXAy_fNaahpjlZTcm-2" edge="1">
          <mxGeometry relative="1" as="geometry" />
        </mxCell>
        <mxCell id="-k5jXAy_fNaahpjlZTcm-12" value="Possui" style="rhombus;whiteSpace=wrap;html=1;" parent="1" vertex="1">
          <mxGeometry x="544" y="470" width="80" height="80" as="geometry" />
        </mxCell>
        <mxCell id="-k5jXAy_fNaahpjlZTcm-17" style="edgeStyle=orthogonalEdgeStyle;rounded=0;orthogonalLoop=1;jettySize=auto;html=1;endArrow=none;endFill=0;" parent="1" source="-k5jXAy_fNaahpjlZTcm-15" target="-k5jXAy_fNaahpjlZTcm-3" edge="1">
          <mxGeometry relative="1" as="geometry" />
        </mxCell>
        <mxCell id="-k5jXAy_fNaahpjlZTcm-15" value="Possui" style="rhombus;whiteSpace=wrap;html=1;" parent="1" vertex="1">
          <mxGeometry x="214" y="470" width="80" height="80" as="geometry" />
        </mxCell>
        <mxCell id="-k5jXAy_fNaahpjlZTcm-22" style="edgeStyle=orthogonalEdgeStyle;rounded=0;orthogonalLoop=1;jettySize=auto;html=1;entryX=0.5;entryY=0;entryDx=0;entryDy=0;endArrow=none;endFill=0;" parent="1" source="-k5jXAy_fNaahpjlZTcm-20" target="-k5jXAy_fNaahpjlZTcm-5" edge="1">
          <mxGeometry relative="1" as="geometry" />
        </mxCell>
        <mxCell id="-k5jXAy_fNaahpjlZTcm-20" value="Possui" style="rhombus;whiteSpace=wrap;html=1;" parent="1" vertex="1">
          <mxGeometry x="384" y="595" width="80" height="80" as="geometry" />
        </mxCell>
        <mxCell id="-k5jXAy_fNaahpjlZTcm-32" style="edgeStyle=orthogonalEdgeStyle;rounded=0;orthogonalLoop=1;jettySize=auto;html=1;entryX=0.5;entryY=1;entryDx=0;entryDy=0;endArrow=none;endFill=0;" parent="1" source="-k5jXAy_fNaahpjlZTcm-27" target="-k5jXAy_fNaahpjlZTcm-28" edge="1">
          <mxGeometry relative="1" as="geometry" />
        </mxCell>
        <mxCell id="-k5jXAy_fNaahpjlZTcm-27" value="Cliente" style="rounded=0;whiteSpace=wrap;html=1;" parent="1" vertex="1">
          <mxGeometry x="364" y="950" width="120" height="60" as="geometry" />
        </mxCell>
        <mxCell id="-k5jXAy_fNaahpjlZTcm-30" style="edgeStyle=orthogonalEdgeStyle;rounded=0;orthogonalLoop=1;jettySize=auto;html=1;endArrow=none;endFill=0;" parent="1" source="-k5jXAy_fNaahpjlZTcm-28" target="-k5jXAy_fNaahpjlZTcm-5" edge="1">
          <mxGeometry relative="1" as="geometry" />
        </mxCell>
        <mxCell id="-k5jXAy_fNaahpjlZTcm-28" value="Possui" style="rhombus;whiteSpace=wrap;html=1;" parent="1" vertex="1">
          <mxGeometry x="384" y="830" width="80" height="80" as="geometry" />
        </mxCell>
        <mxCell id="-k5jXAy_fNaahpjlZTcm-35" value="1" style="text;html=1;align=center;verticalAlign=middle;resizable=0;points=[];autosize=1;strokeColor=none;fillColor=none;" parent="1" vertex="1">
          <mxGeometry x="414" y="250" width="30" height="30" as="geometry" />
        </mxCell>
        <mxCell id="-k5jXAy_fNaahpjlZTcm-36" value="N" style="text;html=1;align=center;verticalAlign=middle;resizable=0;points=[];autosize=1;strokeColor=none;fillColor=none;" parent="1" vertex="1">
          <mxGeometry x="394" y="455" width="30" height="30" as="geometry" />
        </mxCell>
        <mxCell id="-k5jXAy_fNaahpjlZTcm-37" value="1" style="text;html=1;align=center;verticalAlign=middle;resizable=0;points=[];autosize=1;strokeColor=none;fillColor=none;" parent="1" vertex="1">
          <mxGeometry x="144" y="470" width="30" height="30" as="geometry" />
        </mxCell>
        <mxCell id="-k5jXAy_fNaahpjlZTcm-38" value="N" style="text;html=1;align=center;verticalAlign=middle;resizable=0;points=[];autosize=1;strokeColor=none;fillColor=none;" parent="1" vertex="1">
          <mxGeometry x="334" y="470" width="30" height="30" as="geometry" />
        </mxCell>
        <mxCell id="-k5jXAy_fNaahpjlZTcm-39" value="1" style="text;html=1;align=center;verticalAlign=middle;resizable=0;points=[];autosize=1;strokeColor=none;fillColor=none;" parent="1" vertex="1">
          <mxGeometry x="654" y="470" width="30" height="30" as="geometry" />
        </mxCell>
        <mxCell id="-k5jXAy_fNaahpjlZTcm-40" value="N" style="text;html=1;align=center;verticalAlign=middle;resizable=0;points=[];autosize=1;strokeColor=none;fillColor=none;" parent="1" vertex="1">
          <mxGeometry x="479" y="470" width="30" height="30" as="geometry" />
        </mxCell>
        <mxCell id="-k5jXAy_fNaahpjlZTcm-42" value="1" style="text;html=1;align=center;verticalAlign=middle;resizable=0;points=[];autosize=1;strokeColor=none;fillColor=none;" parent="1" vertex="1">
          <mxGeometry x="424" y="538" width="30" height="30" as="geometry" />
        </mxCell>
        <mxCell id="-k5jXAy_fNaahpjlZTcm-43" value="N" style="text;html=1;align=center;verticalAlign=middle;resizable=0;points=[];autosize=1;strokeColor=none;fillColor=none;" parent="1" vertex="1">
          <mxGeometry x="424" y="700" width="30" height="30" as="geometry" />
        </mxCell>
        <mxCell id="-k5jXAy_fNaahpjlZTcm-44" value="N" style="text;html=1;align=center;verticalAlign=middle;resizable=0;points=[];autosize=1;strokeColor=none;fillColor=none;" parent="1" vertex="1">
          <mxGeometry x="424" y="788" width="30" height="30" as="geometry" />
        </mxCell>
        <mxCell id="-k5jXAy_fNaahpjlZTcm-45" value="1" style="text;html=1;align=center;verticalAlign=middle;resizable=0;points=[];autosize=1;strokeColor=none;fillColor=none;" parent="1" vertex="1">
          <mxGeometry x="424" y="920" width="30" height="30" as="geometry" />
        </mxCell>
      </root>
    </mxGraphModel>
  </diagram>
  <diagram id="KoUexoSvWND89SvAtmVY" name="Exercício 1.3">
    <mxGraphModel dx="1232" dy="1853" grid="1" gridSize="10" guides="1" tooltips="1" connect="1" arrows="1" fold="1" page="1" pageScale="1" pageWidth="827" pageHeight="1169" math="0" shadow="0">
      <root>
        <mxCell id="0" />
        <mxCell id="1" parent="0" />
        <mxCell id="lJlTZO6aMbyamImWnHVL-1" value="Uma clínica veterinária deseja cadastrar os pets que são atendidos em seu local.&#xa;&#xa;&#xa;- a clínica contém um endereço;&#xa;- os pets deverão ter nome, data de nascimento, tipo de pet;&#xa;- os pets deverão ter raça;&#xa;- os pets deverão ter donos;&#xa;- a clínica deseja cadastrar seus veterinários e todo atendimento de pet será feito por um veterinário;" style="text;whiteSpace=wrap;" vertex="1" parent="1">
          <mxGeometry x="20" y="-1150" width="560" height="150" as="geometry" />
        </mxCell>
        <mxCell id="EUrLBF1vASvb_XzxsAEc-17" style="edgeStyle=orthogonalEdgeStyle;rounded=0;orthogonalLoop=1;jettySize=auto;html=1;endArrow=none;endFill=0;" edge="1" parent="1" source="lJlTZO6aMbyamImWnHVL-3" target="EUrLBF1vASvb_XzxsAEc-16">
          <mxGeometry relative="1" as="geometry" />
        </mxCell>
        <mxCell id="lJlTZO6aMbyamImWnHVL-3" value="Clinica" style="whiteSpace=wrap;html=1;" vertex="1" parent="1">
          <mxGeometry x="696" y="-940" width="120" height="60" as="geometry" />
        </mxCell>
        <mxCell id="EUrLBF1vASvb_XzxsAEc-34" style="edgeStyle=orthogonalEdgeStyle;rounded=0;orthogonalLoop=1;jettySize=auto;html=1;entryX=0.5;entryY=0;entryDx=0;entryDy=0;endArrow=none;endFill=0;" edge="1" parent="1" source="lJlTZO6aMbyamImWnHVL-4" target="EUrLBF1vASvb_XzxsAEc-32">
          <mxGeometry relative="1" as="geometry" />
        </mxCell>
        <mxCell id="EUrLBF1vASvb_XzxsAEc-44" style="edgeStyle=orthogonalEdgeStyle;rounded=0;orthogonalLoop=1;jettySize=auto;html=1;entryX=1;entryY=0.5;entryDx=0;entryDy=0;endArrow=none;endFill=0;" edge="1" parent="1" source="lJlTZO6aMbyamImWnHVL-4" target="EUrLBF1vASvb_XzxsAEc-33">
          <mxGeometry relative="1" as="geometry" />
        </mxCell>
        <mxCell id="lJlTZO6aMbyamImWnHVL-4" value="Pet" style="whiteSpace=wrap;html=1;" vertex="1" parent="1">
          <mxGeometry x="372" y="-440" width="120" height="60" as="geometry" />
        </mxCell>
        <mxCell id="EUrLBF1vASvb_XzxsAEc-20" style="edgeStyle=orthogonalEdgeStyle;rounded=0;orthogonalLoop=1;jettySize=auto;html=1;endArrow=none;endFill=0;" edge="1" parent="1" source="lJlTZO6aMbyamImWnHVL-5" target="EUrLBF1vASvb_XzxsAEc-19">
          <mxGeometry relative="1" as="geometry" />
        </mxCell>
        <mxCell id="lJlTZO6aMbyamImWnHVL-5" value="Veterinário&amp;nbsp;" style="whiteSpace=wrap;html=1;" vertex="1" parent="1">
          <mxGeometry x="696" y="-695" width="120" height="60" as="geometry" />
        </mxCell>
        <mxCell id="EUrLBF1vASvb_XzxsAEc-11" style="edgeStyle=orthogonalEdgeStyle;rounded=0;orthogonalLoop=1;jettySize=auto;html=1;entryX=0;entryY=0.5;entryDx=0;entryDy=0;endArrow=none;endFill=0;" edge="1" parent="1" source="EUrLBF1vASvb_XzxsAEc-2" target="lJlTZO6aMbyamImWnHVL-3">
          <mxGeometry relative="1" as="geometry" />
        </mxCell>
        <mxCell id="EUrLBF1vASvb_XzxsAEc-2" value="Endereço" style="ellipse;whiteSpace=wrap;html=1;" vertex="1" parent="1">
          <mxGeometry x="562" y="-925" width="80" height="30" as="geometry" />
        </mxCell>
        <mxCell id="EUrLBF1vASvb_XzxsAEc-24" style="edgeStyle=orthogonalEdgeStyle;rounded=0;orthogonalLoop=1;jettySize=auto;html=1;endArrow=none;endFill=0;" edge="1" parent="1" source="EUrLBF1vASvb_XzxsAEc-3" target="EUrLBF1vASvb_XzxsAEc-4">
          <mxGeometry relative="1" as="geometry" />
        </mxCell>
        <mxCell id="EUrLBF1vASvb_XzxsAEc-3" value="Nome" style="ellipse;whiteSpace=wrap;html=1;" vertex="1" parent="1">
          <mxGeometry x="392" y="-560" width="80" height="30" as="geometry" />
        </mxCell>
        <mxCell id="EUrLBF1vASvb_XzxsAEc-25" style="edgeStyle=orthogonalEdgeStyle;rounded=0;orthogonalLoop=1;jettySize=auto;html=1;endArrow=none;endFill=0;" edge="1" parent="1" source="EUrLBF1vASvb_XzxsAEc-4" target="lJlTZO6aMbyamImWnHVL-4">
          <mxGeometry relative="1" as="geometry" />
        </mxCell>
        <mxCell id="EUrLBF1vASvb_XzxsAEc-4" value="Data de nascimento" style="ellipse;whiteSpace=wrap;html=1;" vertex="1" parent="1">
          <mxGeometry x="382" y="-510" width="100" height="40" as="geometry" />
        </mxCell>
        <mxCell id="EUrLBF1vASvb_XzxsAEc-5" value="Tipo de Pet" style="whiteSpace=wrap;html=1;" vertex="1" parent="1">
          <mxGeometry x="372" y="-200" width="120" height="60" as="geometry" />
        </mxCell>
        <mxCell id="EUrLBF1vASvb_XzxsAEc-6" value="Raça" style="whiteSpace=wrap;html=1;" vertex="1" parent="1">
          <mxGeometry x="12" y="-440" width="120" height="60" as="geometry" />
        </mxCell>
        <mxCell id="EUrLBF1vASvb_XzxsAEc-23" style="edgeStyle=orthogonalEdgeStyle;rounded=0;orthogonalLoop=1;jettySize=auto;html=1;endArrow=none;endFill=0;" edge="1" parent="1" source="EUrLBF1vASvb_XzxsAEc-9" target="EUrLBF1vASvb_XzxsAEc-3">
          <mxGeometry relative="1" as="geometry" />
        </mxCell>
        <mxCell id="EUrLBF1vASvb_XzxsAEc-9" value="Dono" style="ellipse;whiteSpace=wrap;html=1;" vertex="1" parent="1">
          <mxGeometry x="392" y="-610" width="80" height="30" as="geometry" />
        </mxCell>
        <mxCell id="EUrLBF1vASvb_XzxsAEc-26" style="edgeStyle=orthogonalEdgeStyle;rounded=0;orthogonalLoop=1;jettySize=auto;html=1;entryX=1;entryY=0.5;entryDx=0;entryDy=0;endArrow=none;endFill=0;" edge="1" parent="1" source="EUrLBF1vASvb_XzxsAEc-10" target="EUrLBF1vASvb_XzxsAEc-22">
          <mxGeometry relative="1" as="geometry" />
        </mxCell>
        <mxCell id="EUrLBF1vASvb_XzxsAEc-10" value="Atendimento" style="whiteSpace=wrap;html=1;" vertex="1" parent="1">
          <mxGeometry x="696" y="-440" width="120" height="60" as="geometry" />
        </mxCell>
        <mxCell id="EUrLBF1vASvb_XzxsAEc-18" style="edgeStyle=orthogonalEdgeStyle;rounded=0;orthogonalLoop=1;jettySize=auto;html=1;endArrow=none;endFill=0;" edge="1" parent="1" source="EUrLBF1vASvb_XzxsAEc-16" target="lJlTZO6aMbyamImWnHVL-5">
          <mxGeometry relative="1" as="geometry" />
        </mxCell>
        <mxCell id="EUrLBF1vASvb_XzxsAEc-16" value="Possui" style="rhombus;whiteSpace=wrap;html=1;" vertex="1" parent="1">
          <mxGeometry x="716" y="-830" width="80" height="80" as="geometry" />
        </mxCell>
        <mxCell id="EUrLBF1vASvb_XzxsAEc-21" style="edgeStyle=orthogonalEdgeStyle;rounded=0;orthogonalLoop=1;jettySize=auto;html=1;entryX=0.5;entryY=0;entryDx=0;entryDy=0;endArrow=none;endFill=0;" edge="1" parent="1" source="EUrLBF1vASvb_XzxsAEc-19" target="EUrLBF1vASvb_XzxsAEc-10">
          <mxGeometry relative="1" as="geometry" />
        </mxCell>
        <mxCell id="EUrLBF1vASvb_XzxsAEc-19" value="Possui" style="rhombus;whiteSpace=wrap;html=1;" vertex="1" parent="1">
          <mxGeometry x="716" y="-580" width="80" height="80" as="geometry" />
        </mxCell>
        <mxCell id="EUrLBF1vASvb_XzxsAEc-27" style="edgeStyle=orthogonalEdgeStyle;rounded=0;orthogonalLoop=1;jettySize=auto;html=1;entryX=1;entryY=0.5;entryDx=0;entryDy=0;endArrow=none;endFill=0;" edge="1" parent="1" source="EUrLBF1vASvb_XzxsAEc-22" target="lJlTZO6aMbyamImWnHVL-4">
          <mxGeometry relative="1" as="geometry">
            <mxPoint x="512" y="-410" as="targetPoint" />
          </mxGeometry>
        </mxCell>
        <mxCell id="EUrLBF1vASvb_XzxsAEc-22" value="Possui" style="rhombus;whiteSpace=wrap;html=1;" vertex="1" parent="1">
          <mxGeometry x="552" y="-450" width="80" height="80" as="geometry" />
        </mxCell>
        <mxCell id="EUrLBF1vASvb_XzxsAEc-35" style="edgeStyle=orthogonalEdgeStyle;rounded=0;orthogonalLoop=1;jettySize=auto;html=1;entryX=0.5;entryY=0;entryDx=0;entryDy=0;endArrow=none;endFill=0;" edge="1" parent="1" source="EUrLBF1vASvb_XzxsAEc-32" target="EUrLBF1vASvb_XzxsAEc-5">
          <mxGeometry relative="1" as="geometry" />
        </mxCell>
        <mxCell id="EUrLBF1vASvb_XzxsAEc-32" value="Possui" style="rhombus;whiteSpace=wrap;html=1;" vertex="1" parent="1">
          <mxGeometry x="392" y="-330" width="80" height="80" as="geometry" />
        </mxCell>
        <mxCell id="EUrLBF1vASvb_XzxsAEc-45" style="edgeStyle=orthogonalEdgeStyle;rounded=0;orthogonalLoop=1;jettySize=auto;html=1;entryX=1;entryY=0.5;entryDx=0;entryDy=0;endArrow=none;endFill=0;" edge="1" parent="1" source="EUrLBF1vASvb_XzxsAEc-33" target="EUrLBF1vASvb_XzxsAEc-6">
          <mxGeometry relative="1" as="geometry" />
        </mxCell>
        <mxCell id="EUrLBF1vASvb_XzxsAEc-33" value="Possui" style="rhombus;whiteSpace=wrap;html=1;" vertex="1" parent="1">
          <mxGeometry x="212" y="-450" width="80" height="80" as="geometry" />
        </mxCell>
        <mxCell id="EUrLBF1vASvb_XzxsAEc-38" value="1" style="text;html=1;align=center;verticalAlign=middle;resizable=0;points=[];autosize=1;strokeColor=none;fillColor=none;" vertex="1" parent="1">
          <mxGeometry x="752" y="-880" width="30" height="30" as="geometry" />
        </mxCell>
        <mxCell id="EUrLBF1vASvb_XzxsAEc-39" value="N" style="text;html=1;align=center;verticalAlign=middle;resizable=0;points=[];autosize=1;strokeColor=none;fillColor=none;" vertex="1" parent="1">
          <mxGeometry x="752" y="-725" width="30" height="30" as="geometry" />
        </mxCell>
        <mxCell id="EUrLBF1vASvb_XzxsAEc-40" value="1" style="text;html=1;align=center;verticalAlign=middle;resizable=0;points=[];autosize=1;strokeColor=none;fillColor=none;" vertex="1" parent="1">
          <mxGeometry x="752" y="-640" width="30" height="30" as="geometry" />
        </mxCell>
        <mxCell id="EUrLBF1vASvb_XzxsAEc-41" value="N" style="text;html=1;align=center;verticalAlign=middle;resizable=0;points=[];autosize=1;strokeColor=none;fillColor=none;" vertex="1" parent="1">
          <mxGeometry x="751" y="-465" width="30" height="30" as="geometry" />
        </mxCell>
        <mxCell id="EUrLBF1vASvb_XzxsAEc-42" value="1" style="text;html=1;align=center;verticalAlign=middle;resizable=0;points=[];autosize=1;strokeColor=none;fillColor=none;" vertex="1" parent="1">
          <mxGeometry x="487" y="-452" width="30" height="30" as="geometry" />
        </mxCell>
        <mxCell id="EUrLBF1vASvb_XzxsAEc-43" value="N" style="text;html=1;align=center;verticalAlign=middle;resizable=0;points=[];autosize=1;strokeColor=none;fillColor=none;" vertex="1" parent="1">
          <mxGeometry x="666" y="-452" width="30" height="30" as="geometry" />
        </mxCell>
        <mxCell id="EUrLBF1vASvb_XzxsAEc-46" value="N" style="text;html=1;align=center;verticalAlign=middle;resizable=0;points=[];autosize=1;strokeColor=none;fillColor=none;" vertex="1" parent="1">
          <mxGeometry x="342" y="-450" width="30" height="30" as="geometry" />
        </mxCell>
        <mxCell id="EUrLBF1vASvb_XzxsAEc-47" value="1" style="text;html=1;align=center;verticalAlign=middle;resizable=0;points=[];autosize=1;strokeColor=none;fillColor=none;" vertex="1" parent="1">
          <mxGeometry x="127" y="-450" width="30" height="30" as="geometry" />
        </mxCell>
        <mxCell id="EUrLBF1vASvb_XzxsAEc-48" value="N" style="text;html=1;align=center;verticalAlign=middle;resizable=0;points=[];autosize=1;strokeColor=none;fillColor=none;" vertex="1" parent="1">
          <mxGeometry x="402" y="-380" width="30" height="30" as="geometry" />
        </mxCell>
        <mxCell id="EUrLBF1vASvb_XzxsAEc-49" value="1" style="text;html=1;align=center;verticalAlign=middle;resizable=0;points=[];autosize=1;strokeColor=none;fillColor=none;" vertex="1" parent="1">
          <mxGeometry x="402" y="-230" width="30" height="30" as="geometry" />
        </mxCell>
      </root>
    </mxGraphModel>
  </diagram>
  <diagram id="7Ek5P1TqkKww93vytSwB" name="Exercício 1.4">
    <mxGraphModel dx="2731" dy="1056" grid="1" gridSize="10" guides="1" tooltips="1" connect="1" arrows="1" fold="1" page="1" pageScale="1" pageWidth="827" pageHeight="1169" math="0" shadow="0">
      <root>
        <mxCell id="0" />
        <mxCell id="1" parent="0" />
        <mxCell id="6f_JXfi755zW4YLyqtgh-1" value="A Optus é uma empresa no ramo musical que deseja realizar o gerenciamento dos lançamentos de novos cds de seus artistas. Cada álbum lançado poderá conter mais de um estilo vinculado (ex.: Indie e Folk).&#xa;É importante que você crie também uma estratégia para que os usuários possuam acesso à plataforma.&#xa;Os usuários deverão conter nome, email, senha e o tipo de permissão (eles podem ser do tipo administrador ou comum).&#xa;&#xa;&#xa;Observações:&#xa;Os Artistas deverão possuir somente nome.&#xa;Estilos: nome.&#xa;Albuns: titulo, data de lançamento, localizacao, quantidade de minutos, se o álbum está ativo para visualização, a quem pertence (somente um artista por álbum) e quais os estilos vinculados." style="text;whiteSpace=wrap;" vertex="1" parent="1">
          <mxGeometry x="20" y="20" width="770" height="230" as="geometry" />
        </mxCell>
        <mxCell id="OEwJHyYeRt2I_QTzyb7y-1" style="edgeStyle=orthogonalEdgeStyle;rounded=0;orthogonalLoop=1;jettySize=auto;html=1;endArrow=none;endFill=0;" edge="1" parent="1" source="OEwJHyYeRt2I_QTzyb7y-3" target="OEwJHyYeRt2I_QTzyb7y-25">
          <mxGeometry relative="1" as="geometry" />
        </mxCell>
        <mxCell id="OEwJHyYeRt2I_QTzyb7y-2" style="edgeStyle=orthogonalEdgeStyle;rounded=0;orthogonalLoop=1;jettySize=auto;html=1;entryX=0;entryY=0.5;entryDx=0;entryDy=0;endArrow=none;endFill=0;" edge="1" parent="1" source="OEwJHyYeRt2I_QTzyb7y-3" target="OEwJHyYeRt2I_QTzyb7y-23">
          <mxGeometry relative="1" as="geometry" />
        </mxCell>
        <mxCell id="OEwJHyYeRt2I_QTzyb7y-3" value="Empresa" style="rounded=0;whiteSpace=wrap;html=1;" vertex="1" parent="1">
          <mxGeometry x="-480" y="470" width="120" height="60" as="geometry" />
        </mxCell>
        <mxCell id="OEwJHyYeRt2I_QTzyb7y-4" style="edgeStyle=orthogonalEdgeStyle;rounded=0;orthogonalLoop=1;jettySize=auto;html=1;entryX=0;entryY=0.5;entryDx=0;entryDy=0;endArrow=none;endFill=0;" edge="1" parent="1" source="OEwJHyYeRt2I_QTzyb7y-5" target="OEwJHyYeRt2I_QTzyb7y-31">
          <mxGeometry relative="1" as="geometry" />
        </mxCell>
        <mxCell id="OEwJHyYeRt2I_QTzyb7y-5" value="Album" style="rounded=0;whiteSpace=wrap;html=1;" vertex="1" parent="1">
          <mxGeometry x="100" y="470" width="120" height="60" as="geometry" />
        </mxCell>
        <mxCell id="OEwJHyYeRt2I_QTzyb7y-6" style="edgeStyle=orthogonalEdgeStyle;rounded=0;orthogonalLoop=1;jettySize=auto;html=1;entryX=0;entryY=0.5;entryDx=0;entryDy=0;endArrow=none;endFill=0;" edge="1" parent="1" source="OEwJHyYeRt2I_QTzyb7y-7" target="OEwJHyYeRt2I_QTzyb7y-27">
          <mxGeometry relative="1" as="geometry" />
        </mxCell>
        <mxCell id="OEwJHyYeRt2I_QTzyb7y-7" value="Usuários" style="rounded=0;whiteSpace=wrap;html=1;" vertex="1" parent="1">
          <mxGeometry x="-480" y="690" width="120" height="60" as="geometry" />
        </mxCell>
        <mxCell id="OEwJHyYeRt2I_QTzyb7y-8" style="edgeStyle=orthogonalEdgeStyle;rounded=0;orthogonalLoop=1;jettySize=auto;html=1;entryX=0;entryY=0.5;entryDx=0;entryDy=0;endArrow=none;endFill=0;" edge="1" parent="1" source="OEwJHyYeRt2I_QTzyb7y-9" target="OEwJHyYeRt2I_QTzyb7y-29">
          <mxGeometry relative="1" as="geometry" />
        </mxCell>
        <mxCell id="OEwJHyYeRt2I_QTzyb7y-9" value="Artista" style="rounded=0;whiteSpace=wrap;html=1;" vertex="1" parent="1">
          <mxGeometry x="-180" y="470" width="120" height="60" as="geometry" />
        </mxCell>
        <mxCell id="OEwJHyYeRt2I_QTzyb7y-10" style="edgeStyle=orthogonalEdgeStyle;rounded=0;orthogonalLoop=1;jettySize=auto;html=1;entryX=0;entryY=0.5;entryDx=0;entryDy=0;endArrow=none;endFill=0;" edge="1" parent="1" source="OEwJHyYeRt2I_QTzyb7y-11" target="OEwJHyYeRt2I_QTzyb7y-15">
          <mxGeometry relative="1" as="geometry" />
        </mxCell>
        <mxCell id="OEwJHyYeRt2I_QTzyb7y-11" value="Estilo" style="rounded=0;whiteSpace=wrap;html=1;" vertex="1" parent="1">
          <mxGeometry x="420" y="470" width="120" height="60" as="geometry" />
        </mxCell>
        <mxCell id="OEwJHyYeRt2I_QTzyb7y-46" style="edgeStyle=orthogonalEdgeStyle;rounded=0;orthogonalLoop=1;jettySize=auto;html=1;endArrow=none;endFill=0;" edge="1" parent="1" source="OEwJHyYeRt2I_QTzyb7y-12" target="OEwJHyYeRt2I_QTzyb7y-5">
          <mxGeometry relative="1" as="geometry" />
        </mxCell>
        <mxCell id="OEwJHyYeRt2I_QTzyb7y-12" value="Status de visualização&amp;nbsp;" style="ellipse;whiteSpace=wrap;html=1;" vertex="1" parent="1">
          <mxGeometry x="180" y="390" width="150" height="40" as="geometry" />
        </mxCell>
        <mxCell id="OEwJHyYeRt2I_QTzyb7y-47" style="edgeStyle=orthogonalEdgeStyle;rounded=0;orthogonalLoop=1;jettySize=auto;html=1;endArrow=none;endFill=0;" edge="1" parent="1" source="OEwJHyYeRt2I_QTzyb7y-13" target="OEwJHyYeRt2I_QTzyb7y-5">
          <mxGeometry relative="1" as="geometry" />
        </mxCell>
        <mxCell id="OEwJHyYeRt2I_QTzyb7y-13" value="Titulo" style="ellipse;whiteSpace=wrap;html=1;" vertex="1" parent="1">
          <mxGeometry x="30" y="390" width="90" height="40" as="geometry" />
        </mxCell>
        <mxCell id="OEwJHyYeRt2I_QTzyb7y-50" style="edgeStyle=orthogonalEdgeStyle;rounded=0;orthogonalLoop=1;jettySize=auto;html=1;entryX=0.5;entryY=0;entryDx=0;entryDy=0;endArrow=none;endFill=0;" edge="1" parent="1" source="OEwJHyYeRt2I_QTzyb7y-14" target="OEwJHyYeRt2I_QTzyb7y-12">
          <mxGeometry relative="1" as="geometry" />
        </mxCell>
        <mxCell id="OEwJHyYeRt2I_QTzyb7y-14" value="Data de lançamento" style="ellipse;whiteSpace=wrap;html=1;" vertex="1" parent="1">
          <mxGeometry x="185" y="330" width="140" height="40" as="geometry" />
        </mxCell>
        <mxCell id="OEwJHyYeRt2I_QTzyb7y-15" value="Nome do Estilo" style="ellipse;whiteSpace=wrap;html=1;" vertex="1" parent="1">
          <mxGeometry x="590" y="480" width="90" height="40" as="geometry" />
        </mxCell>
        <mxCell id="OEwJHyYeRt2I_QTzyb7y-48" style="edgeStyle=orthogonalEdgeStyle;rounded=0;orthogonalLoop=1;jettySize=auto;html=1;endArrow=none;endFill=0;" edge="1" parent="1" source="OEwJHyYeRt2I_QTzyb7y-16" target="OEwJHyYeRt2I_QTzyb7y-13">
          <mxGeometry relative="1" as="geometry" />
        </mxCell>
        <mxCell id="OEwJHyYeRt2I_QTzyb7y-16" value="Nome do Artista" style="ellipse;whiteSpace=wrap;html=1;" vertex="1" parent="1">
          <mxGeometry x="30" y="330" width="90" height="40" as="geometry" />
        </mxCell>
        <mxCell id="OEwJHyYeRt2I_QTzyb7y-17" value="Plataforma" style="rounded=0;whiteSpace=wrap;html=1;" vertex="1" parent="1">
          <mxGeometry x="-180" y="690" width="120" height="60" as="geometry" />
        </mxCell>
        <mxCell id="OEwJHyYeRt2I_QTzyb7y-61" style="edgeStyle=orthogonalEdgeStyle;rounded=0;orthogonalLoop=1;jettySize=auto;html=1;entryX=0;entryY=0.5;entryDx=0;entryDy=0;endArrow=none;endFill=0;" edge="1" parent="1" source="OEwJHyYeRt2I_QTzyb7y-18" target="OEwJHyYeRt2I_QTzyb7y-7">
          <mxGeometry relative="1" as="geometry" />
        </mxCell>
        <mxCell id="OEwJHyYeRt2I_QTzyb7y-18" value="Email" style="ellipse;whiteSpace=wrap;html=1;" vertex="1" parent="1">
          <mxGeometry x="-660" y="750" width="90" height="40" as="geometry" />
        </mxCell>
        <mxCell id="OEwJHyYeRt2I_QTzyb7y-62" style="edgeStyle=orthogonalEdgeStyle;rounded=0;orthogonalLoop=1;jettySize=auto;html=1;entryX=0;entryY=0.5;entryDx=0;entryDy=0;endArrow=none;endFill=0;" edge="1" parent="1" source="OEwJHyYeRt2I_QTzyb7y-19" target="OEwJHyYeRt2I_QTzyb7y-7">
          <mxGeometry relative="1" as="geometry" />
        </mxCell>
        <mxCell id="OEwJHyYeRt2I_QTzyb7y-19" value="Senha" style="ellipse;whiteSpace=wrap;html=1;" vertex="1" parent="1">
          <mxGeometry x="-660" y="650" width="90" height="40" as="geometry" />
        </mxCell>
        <mxCell id="OEwJHyYeRt2I_QTzyb7y-55" style="edgeStyle=orthogonalEdgeStyle;rounded=0;orthogonalLoop=1;jettySize=auto;html=1;entryX=0;entryY=0.5;entryDx=0;entryDy=0;endArrow=none;endFill=0;" edge="1" parent="1" source="OEwJHyYeRt2I_QTzyb7y-20" target="OEwJHyYeRt2I_QTzyb7y-18">
          <mxGeometry relative="1" as="geometry" />
        </mxCell>
        <mxCell id="OEwJHyYeRt2I_QTzyb7y-20" value="Administrador" style="ellipse;whiteSpace=wrap;html=1;" vertex="1" parent="1">
          <mxGeometry x="-790" y="750" width="90" height="40" as="geometry" />
        </mxCell>
        <mxCell id="OEwJHyYeRt2I_QTzyb7y-54" style="edgeStyle=orthogonalEdgeStyle;rounded=0;orthogonalLoop=1;jettySize=auto;html=1;endArrow=none;endFill=0;" edge="1" parent="1" source="OEwJHyYeRt2I_QTzyb7y-21" target="OEwJHyYeRt2I_QTzyb7y-20">
          <mxGeometry relative="1" as="geometry" />
        </mxCell>
        <mxCell id="OEwJHyYeRt2I_QTzyb7y-21" value="Comum" style="ellipse;whiteSpace=wrap;html=1;" vertex="1" parent="1">
          <mxGeometry x="-790" y="690" width="90" height="40" as="geometry" />
        </mxCell>
        <mxCell id="OEwJHyYeRt2I_QTzyb7y-22" style="edgeStyle=orthogonalEdgeStyle;rounded=0;orthogonalLoop=1;jettySize=auto;html=1;endArrow=none;endFill=0;" edge="1" parent="1" source="OEwJHyYeRt2I_QTzyb7y-23" target="OEwJHyYeRt2I_QTzyb7y-9">
          <mxGeometry relative="1" as="geometry" />
        </mxCell>
        <mxCell id="OEwJHyYeRt2I_QTzyb7y-23" value="Possui" style="rhombus;whiteSpace=wrap;html=1;" vertex="1" parent="1">
          <mxGeometry x="-310" y="460" width="80" height="80" as="geometry" />
        </mxCell>
        <mxCell id="OEwJHyYeRt2I_QTzyb7y-24" style="edgeStyle=orthogonalEdgeStyle;rounded=0;orthogonalLoop=1;jettySize=auto;html=1;endArrow=none;endFill=0;" edge="1" parent="1" source="OEwJHyYeRt2I_QTzyb7y-25" target="OEwJHyYeRt2I_QTzyb7y-7">
          <mxGeometry relative="1" as="geometry" />
        </mxCell>
        <mxCell id="OEwJHyYeRt2I_QTzyb7y-25" value="Possuem" style="rhombus;whiteSpace=wrap;html=1;" vertex="1" parent="1">
          <mxGeometry x="-460" y="570" width="80" height="80" as="geometry" />
        </mxCell>
        <mxCell id="OEwJHyYeRt2I_QTzyb7y-26" style="edgeStyle=orthogonalEdgeStyle;rounded=0;orthogonalLoop=1;jettySize=auto;html=1;endArrow=none;endFill=0;" edge="1" parent="1" source="OEwJHyYeRt2I_QTzyb7y-27" target="OEwJHyYeRt2I_QTzyb7y-17">
          <mxGeometry relative="1" as="geometry" />
        </mxCell>
        <mxCell id="OEwJHyYeRt2I_QTzyb7y-27" value="Acessam" style="rhombus;whiteSpace=wrap;html=1;" vertex="1" parent="1">
          <mxGeometry x="-310" y="680" width="80" height="80" as="geometry" />
        </mxCell>
        <mxCell id="OEwJHyYeRt2I_QTzyb7y-28" style="edgeStyle=orthogonalEdgeStyle;rounded=0;orthogonalLoop=1;jettySize=auto;html=1;entryX=0;entryY=0.5;entryDx=0;entryDy=0;endArrow=none;endFill=0;" edge="1" parent="1" source="OEwJHyYeRt2I_QTzyb7y-29" target="OEwJHyYeRt2I_QTzyb7y-5">
          <mxGeometry relative="1" as="geometry" />
        </mxCell>
        <mxCell id="OEwJHyYeRt2I_QTzyb7y-29" value="Possuem" style="rhombus;whiteSpace=wrap;html=1;" vertex="1" parent="1">
          <mxGeometry x="-20" y="460" width="80" height="80" as="geometry" />
        </mxCell>
        <mxCell id="OEwJHyYeRt2I_QTzyb7y-30" style="edgeStyle=orthogonalEdgeStyle;rounded=0;orthogonalLoop=1;jettySize=auto;html=1;endArrow=none;endFill=0;" edge="1" parent="1" source="OEwJHyYeRt2I_QTzyb7y-31" target="OEwJHyYeRt2I_QTzyb7y-11">
          <mxGeometry relative="1" as="geometry" />
        </mxCell>
        <mxCell id="OEwJHyYeRt2I_QTzyb7y-31" value="Possui" style="rhombus;whiteSpace=wrap;html=1;" vertex="1" parent="1">
          <mxGeometry x="280" y="460" width="80" height="80" as="geometry" />
        </mxCell>
        <mxCell id="OEwJHyYeRt2I_QTzyb7y-51" style="edgeStyle=orthogonalEdgeStyle;rounded=0;orthogonalLoop=1;jettySize=auto;html=1;entryX=0.5;entryY=0;entryDx=0;entryDy=0;endArrow=none;endFill=0;" edge="1" parent="1" source="OEwJHyYeRt2I_QTzyb7y-32" target="OEwJHyYeRt2I_QTzyb7y-14">
          <mxGeometry relative="1" as="geometry" />
        </mxCell>
        <mxCell id="OEwJHyYeRt2I_QTzyb7y-32" value="Quantidade de minutos" style="ellipse;whiteSpace=wrap;html=1;" vertex="1" parent="1">
          <mxGeometry x="180" y="270" width="150" height="40" as="geometry" />
        </mxCell>
        <mxCell id="OEwJHyYeRt2I_QTzyb7y-59" style="edgeStyle=orthogonalEdgeStyle;rounded=0;orthogonalLoop=1;jettySize=auto;html=1;entryX=0;entryY=0.5;entryDx=0;entryDy=0;endArrow=none;endFill=0;" edge="1" parent="1" source="OEwJHyYeRt2I_QTzyb7y-33" target="OEwJHyYeRt2I_QTzyb7y-7">
          <mxGeometry relative="1" as="geometry" />
        </mxCell>
        <mxCell id="OEwJHyYeRt2I_QTzyb7y-33" value="Nome Usuário" style="ellipse;whiteSpace=wrap;html=1;" vertex="1" parent="1">
          <mxGeometry x="-660" y="700" width="90" height="40" as="geometry" />
        </mxCell>
        <mxCell id="OEwJHyYeRt2I_QTzyb7y-49" style="edgeStyle=orthogonalEdgeStyle;rounded=0;orthogonalLoop=1;jettySize=auto;html=1;entryX=0.5;entryY=0;entryDx=0;entryDy=0;endArrow=none;endFill=0;" edge="1" parent="1" source="OEwJHyYeRt2I_QTzyb7y-34" target="OEwJHyYeRt2I_QTzyb7y-16">
          <mxGeometry relative="1" as="geometry" />
        </mxCell>
        <mxCell id="OEwJHyYeRt2I_QTzyb7y-34" value="Localização" style="ellipse;whiteSpace=wrap;html=1;" vertex="1" parent="1">
          <mxGeometry x="20" y="270" width="110" height="40" as="geometry" />
        </mxCell>
        <mxCell id="OEwJHyYeRt2I_QTzyb7y-35" value="1" style="text;html=1;align=center;verticalAlign=middle;resizable=0;points=[];autosize=1;strokeColor=none;fillColor=none;" vertex="1" parent="1">
          <mxGeometry x="-370" y="460" width="30" height="30" as="geometry" />
        </mxCell>
        <mxCell id="OEwJHyYeRt2I_QTzyb7y-36" value="N" style="text;html=1;align=center;verticalAlign=middle;resizable=0;points=[];autosize=1;strokeColor=none;fillColor=none;" vertex="1" parent="1">
          <mxGeometry x="-210" y="460" width="30" height="30" as="geometry" />
        </mxCell>
        <mxCell id="OEwJHyYeRt2I_QTzyb7y-37" value="1" style="text;html=1;align=center;verticalAlign=middle;resizable=0;points=[];autosize=1;strokeColor=none;fillColor=none;" vertex="1" parent="1">
          <mxGeometry x="-65" y="460" width="30" height="30" as="geometry" />
        </mxCell>
        <mxCell id="OEwJHyYeRt2I_QTzyb7y-38" value="N" style="text;html=1;align=center;verticalAlign=middle;resizable=0;points=[];autosize=1;strokeColor=none;fillColor=none;" vertex="1" parent="1">
          <mxGeometry x="70" y="460" width="30" height="30" as="geometry" />
        </mxCell>
        <mxCell id="OEwJHyYeRt2I_QTzyb7y-39" value="1" style="text;html=1;align=center;verticalAlign=middle;resizable=0;points=[];autosize=1;strokeColor=none;fillColor=none;" vertex="1" parent="1">
          <mxGeometry x="220" y="460" width="30" height="30" as="geometry" />
        </mxCell>
        <mxCell id="OEwJHyYeRt2I_QTzyb7y-40" value="N" style="text;html=1;align=center;verticalAlign=middle;resizable=0;points=[];autosize=1;strokeColor=none;fillColor=none;" vertex="1" parent="1">
          <mxGeometry x="390" y="460" width="30" height="30" as="geometry" />
        </mxCell>
        <mxCell id="OEwJHyYeRt2I_QTzyb7y-41" value="1" style="text;html=1;align=center;verticalAlign=middle;resizable=0;points=[];autosize=1;strokeColor=none;fillColor=none;" vertex="1" parent="1">
          <mxGeometry x="-420" y="525" width="30" height="30" as="geometry" />
        </mxCell>
        <mxCell id="OEwJHyYeRt2I_QTzyb7y-42" value="N" style="text;html=1;align=center;verticalAlign=middle;resizable=0;points=[];autosize=1;strokeColor=none;fillColor=none;" vertex="1" parent="1">
          <mxGeometry x="-421" y="665" width="30" height="30" as="geometry" />
        </mxCell>
        <mxCell id="OEwJHyYeRt2I_QTzyb7y-43" value="1" style="text;html=1;align=center;verticalAlign=middle;resizable=0;points=[];autosize=1;strokeColor=none;fillColor=none;" vertex="1" parent="1">
          <mxGeometry x="-204" y="680" width="30" height="30" as="geometry" />
        </mxCell>
      </root>
    </mxGraphModel>
  </diagram>
  <diagram id="wFem-AUaVcUP7bpqjYbS" name="Exercício 1.5">
    <mxGraphModel dx="1611" dy="894" grid="1" gridSize="10" guides="1" tooltips="1" connect="1" arrows="1" fold="1" page="1" pageScale="1" pageWidth="827" pageHeight="1169" math="0" shadow="0">
      <root>
        <mxCell id="0" />
        <mxCell id="1" parent="0" />
        <mxCell id="CsnGFD69IqgLF0apJY4f-1" value="E-Commerce - SenaiShop&#xa;&#xa;&#xa;Uma Loja possui várias categorias&#xa;Uma categoria possui subcategorias&#xa;Um produto possui uma subcategoria&#xa;Um cliente efetua um pedido&#xa;Um pedido pode ter 1 ou vários produtos" style="text;whiteSpace=wrap;" vertex="1" parent="1">
          <mxGeometry x="10" y="10" width="250" height="140" as="geometry" />
        </mxCell>
        <mxCell id="CsnGFD69IqgLF0apJY4f-21" style="edgeStyle=orthogonalEdgeStyle;rounded=0;orthogonalLoop=1;jettySize=auto;html=1;endArrow=none;endFill=0;" edge="1" parent="1" source="CsnGFD69IqgLF0apJY4f-2" target="CsnGFD69IqgLF0apJY4f-9">
          <mxGeometry relative="1" as="geometry" />
        </mxCell>
        <mxCell id="CsnGFD69IqgLF0apJY4f-2" value="Loja" style="whiteSpace=wrap;html=1;" vertex="1" parent="1">
          <mxGeometry x="510" y="185" width="120" height="60" as="geometry" />
        </mxCell>
        <mxCell id="CsnGFD69IqgLF0apJY4f-23" style="edgeStyle=orthogonalEdgeStyle;rounded=0;orthogonalLoop=1;jettySize=auto;html=1;endArrow=none;endFill=0;" edge="1" parent="1" source="CsnGFD69IqgLF0apJY4f-3" target="CsnGFD69IqgLF0apJY4f-20">
          <mxGeometry relative="1" as="geometry" />
        </mxCell>
        <mxCell id="CsnGFD69IqgLF0apJY4f-3" value="Categoria" style="whiteSpace=wrap;html=1;" vertex="1" parent="1">
          <mxGeometry x="510" y="435" width="120" height="60" as="geometry" />
        </mxCell>
        <mxCell id="CsnGFD69IqgLF0apJY4f-25" style="edgeStyle=orthogonalEdgeStyle;rounded=0;orthogonalLoop=1;jettySize=auto;html=1;entryX=1;entryY=0.5;entryDx=0;entryDy=0;endArrow=none;endFill=0;" edge="1" parent="1" source="CsnGFD69IqgLF0apJY4f-4" target="CsnGFD69IqgLF0apJY4f-11">
          <mxGeometry relative="1" as="geometry" />
        </mxCell>
        <mxCell id="CsnGFD69IqgLF0apJY4f-4" value="Subcategoria" style="whiteSpace=wrap;html=1;" vertex="1" parent="1">
          <mxGeometry x="510" y="700" width="120" height="60" as="geometry" />
        </mxCell>
        <mxCell id="CsnGFD69IqgLF0apJY4f-5" value="Cliente" style="whiteSpace=wrap;html=1;" vertex="1" parent="1">
          <mxGeometry x="160" y="185" width="120" height="60" as="geometry" />
        </mxCell>
        <mxCell id="CsnGFD69IqgLF0apJY4f-27" style="edgeStyle=orthogonalEdgeStyle;rounded=0;orthogonalLoop=1;jettySize=auto;html=1;endArrow=none;endFill=0;" edge="1" parent="1" source="CsnGFD69IqgLF0apJY4f-6" target="CsnGFD69IqgLF0apJY4f-8">
          <mxGeometry relative="1" as="geometry" />
        </mxCell>
        <mxCell id="CsnGFD69IqgLF0apJY4f-6" value="Produto" style="whiteSpace=wrap;html=1;" vertex="1" parent="1">
          <mxGeometry x="160" y="700" width="120" height="60" as="geometry" />
        </mxCell>
        <mxCell id="CsnGFD69IqgLF0apJY4f-29" style="edgeStyle=orthogonalEdgeStyle;rounded=0;orthogonalLoop=1;jettySize=auto;html=1;entryX=0.5;entryY=1;entryDx=0;entryDy=0;endArrow=none;endFill=0;" edge="1" parent="1" source="CsnGFD69IqgLF0apJY4f-7" target="CsnGFD69IqgLF0apJY4f-16">
          <mxGeometry relative="1" as="geometry" />
        </mxCell>
        <mxCell id="CsnGFD69IqgLF0apJY4f-7" value="Pedido" style="whiteSpace=wrap;html=1;" vertex="1" parent="1">
          <mxGeometry x="160" y="435" width="120" height="60" as="geometry" />
        </mxCell>
        <mxCell id="CsnGFD69IqgLF0apJY4f-28" style="edgeStyle=orthogonalEdgeStyle;rounded=0;orthogonalLoop=1;jettySize=auto;html=1;entryX=0.5;entryY=1;entryDx=0;entryDy=0;endArrow=none;endFill=0;" edge="1" parent="1" source="CsnGFD69IqgLF0apJY4f-8" target="CsnGFD69IqgLF0apJY4f-7">
          <mxGeometry relative="1" as="geometry" />
        </mxCell>
        <mxCell id="CsnGFD69IqgLF0apJY4f-8" value="Possui" style="rhombus;whiteSpace=wrap;html=1;" vertex="1" parent="1">
          <mxGeometry x="180" y="560" width="80" height="80" as="geometry" />
        </mxCell>
        <mxCell id="CsnGFD69IqgLF0apJY4f-22" style="edgeStyle=orthogonalEdgeStyle;rounded=0;orthogonalLoop=1;jettySize=auto;html=1;endArrow=none;endFill=0;" edge="1" parent="1" source="CsnGFD69IqgLF0apJY4f-9" target="CsnGFD69IqgLF0apJY4f-3">
          <mxGeometry relative="1" as="geometry" />
        </mxCell>
        <mxCell id="CsnGFD69IqgLF0apJY4f-9" value="Possui" style="rhombus;whiteSpace=wrap;html=1;" vertex="1" parent="1">
          <mxGeometry x="530" y="310" width="80" height="80" as="geometry" />
        </mxCell>
        <mxCell id="CsnGFD69IqgLF0apJY4f-26" style="edgeStyle=orthogonalEdgeStyle;rounded=0;orthogonalLoop=1;jettySize=auto;html=1;entryX=1;entryY=0.5;entryDx=0;entryDy=0;endArrow=none;endFill=0;" edge="1" parent="1" source="CsnGFD69IqgLF0apJY4f-11" target="CsnGFD69IqgLF0apJY4f-6">
          <mxGeometry relative="1" as="geometry" />
        </mxCell>
        <mxCell id="CsnGFD69IqgLF0apJY4f-11" value="Possui" style="rhombus;whiteSpace=wrap;html=1;" vertex="1" parent="1">
          <mxGeometry x="350" y="690" width="80" height="80" as="geometry" />
        </mxCell>
        <mxCell id="CsnGFD69IqgLF0apJY4f-30" style="edgeStyle=orthogonalEdgeStyle;rounded=0;orthogonalLoop=1;jettySize=auto;html=1;entryX=0.5;entryY=1;entryDx=0;entryDy=0;endArrow=none;endFill=0;" edge="1" parent="1" source="CsnGFD69IqgLF0apJY4f-16" target="CsnGFD69IqgLF0apJY4f-5">
          <mxGeometry relative="1" as="geometry" />
        </mxCell>
        <mxCell id="CsnGFD69IqgLF0apJY4f-16" value="Efetua" style="rhombus;whiteSpace=wrap;html=1;" vertex="1" parent="1">
          <mxGeometry x="180" y="310" width="80" height="80" as="geometry" />
        </mxCell>
        <mxCell id="CsnGFD69IqgLF0apJY4f-24" style="edgeStyle=orthogonalEdgeStyle;rounded=0;orthogonalLoop=1;jettySize=auto;html=1;entryX=0.5;entryY=0;entryDx=0;entryDy=0;endArrow=none;endFill=0;" edge="1" parent="1" source="CsnGFD69IqgLF0apJY4f-20" target="CsnGFD69IqgLF0apJY4f-4">
          <mxGeometry relative="1" as="geometry" />
        </mxCell>
        <mxCell id="CsnGFD69IqgLF0apJY4f-20" value="Possui" style="rhombus;whiteSpace=wrap;html=1;" vertex="1" parent="1">
          <mxGeometry x="530" y="560" width="80" height="80" as="geometry" />
        </mxCell>
        <mxCell id="CsnGFD69IqgLF0apJY4f-31" value="1" style="text;html=1;align=center;verticalAlign=middle;resizable=0;points=[];autosize=1;strokeColor=none;fillColor=none;" vertex="1" parent="1">
          <mxGeometry x="570" y="245" width="30" height="30" as="geometry" />
        </mxCell>
        <mxCell id="CsnGFD69IqgLF0apJY4f-32" value="N" style="text;html=1;align=center;verticalAlign=middle;resizable=0;points=[];autosize=1;strokeColor=none;fillColor=none;" vertex="1" parent="1">
          <mxGeometry x="570" y="405" width="30" height="30" as="geometry" />
        </mxCell>
        <mxCell id="CsnGFD69IqgLF0apJY4f-33" value="1" style="text;html=1;align=center;verticalAlign=middle;resizable=0;points=[];autosize=1;strokeColor=none;fillColor=none;" vertex="1" parent="1">
          <mxGeometry x="570" y="495" width="30" height="30" as="geometry" />
        </mxCell>
        <mxCell id="CsnGFD69IqgLF0apJY4f-34" value="N" style="text;html=1;align=center;verticalAlign=middle;resizable=0;points=[];autosize=1;strokeColor=none;fillColor=none;" vertex="1" parent="1">
          <mxGeometry x="568" y="670" width="30" height="30" as="geometry" />
        </mxCell>
        <mxCell id="CsnGFD69IqgLF0apJY4f-35" value="N" style="text;html=1;align=center;verticalAlign=middle;resizable=0;points=[];autosize=1;strokeColor=none;fillColor=none;" vertex="1" parent="1">
          <mxGeometry x="480" y="690" width="30" height="30" as="geometry" />
        </mxCell>
        <mxCell id="CsnGFD69IqgLF0apJY4f-36" value="1" style="text;html=1;align=center;verticalAlign=middle;resizable=0;points=[];autosize=1;strokeColor=none;fillColor=none;" vertex="1" parent="1">
          <mxGeometry x="280" y="690" width="30" height="30" as="geometry" />
        </mxCell>
        <mxCell id="CsnGFD69IqgLF0apJY4f-37" value="1" style="text;html=1;align=center;verticalAlign=middle;resizable=0;points=[];autosize=1;strokeColor=none;fillColor=none;" vertex="1" parent="1">
          <mxGeometry x="220" y="245" width="30" height="30" as="geometry" />
        </mxCell>
        <mxCell id="CsnGFD69IqgLF0apJY4f-38" value="N" style="text;html=1;align=center;verticalAlign=middle;resizable=0;points=[];autosize=1;strokeColor=none;fillColor=none;" vertex="1" parent="1">
          <mxGeometry x="221" y="406" width="30" height="30" as="geometry" />
        </mxCell>
        <mxCell id="ONaX-Hq9NblbY5OgrWQi-1" value="1" style="text;html=1;align=center;verticalAlign=middle;resizable=0;points=[];autosize=1;strokeColor=none;fillColor=none;" vertex="1" parent="1">
          <mxGeometry x="220" y="495" width="30" height="30" as="geometry" />
        </mxCell>
        <mxCell id="ONaX-Hq9NblbY5OgrWQi-2" value="N" style="text;html=1;align=center;verticalAlign=middle;resizable=0;points=[];autosize=1;strokeColor=none;fillColor=none;" vertex="1" parent="1">
          <mxGeometry x="220" y="670" width="30" height="30" as="geometry" />
        </mxCell>
      </root>
    </mxGraphModel>
  </diagram>
  <diagram id="vqS5mQKbG95QCzyrR4Z6" name="Exercício 1.6">
    <mxGraphModel dx="1611" dy="894" grid="1" gridSize="10" guides="1" tooltips="1" connect="1" arrows="1" fold="1" page="1" pageScale="1" pageWidth="827" pageHeight="1169" math="0" shadow="0">
      <root>
        <mxCell id="0" />
        <mxCell id="1" parent="0" />
        <mxCell id="tD0wrIK7UTj4f8NjUOcW-1" value="A empresa MicroManu possui uma grande quantidade de clientes que leva seus equipamentos &#xa;como computadores, celulares, video games e até tvs para que seus colaboradores realizem o conserto.&#xa;E eles querem que você desenvolva a base para armazenar todos os dados de seus clientes e seus respectivos consertos.&#xa;Para isto, desenvolva a modelagem para atender a demanda acima. Levando em conta o exemplo abaixo:&#xa;O cliente A levou seu computador na MicroManu, o Erik e o Claudio realizaram a manutenção deste item.&#xa;O cliente B levou sua tv na MicroManu e o Daniel realizou a limpeza de todas as peças.&#xa;&#xa;&#xa;O cliente pode verificar seus consertos no site da MicroManu.&#xa;O colaborador pode encerrar o conserto." style="text;whiteSpace=wrap;" vertex="1" parent="1">
          <mxGeometry x="10" width="560" height="230" as="geometry" />
        </mxCell>
        <mxCell id="2e9fS-BUwRRxfaYHLVj6-7" style="edgeStyle=orthogonalEdgeStyle;rounded=0;orthogonalLoop=1;jettySize=auto;html=1;endArrow=none;endFill=0;" edge="1" parent="1" source="tD0wrIK7UTj4f8NjUOcW-3" target="2e9fS-BUwRRxfaYHLVj6-5">
          <mxGeometry relative="1" as="geometry" />
        </mxCell>
        <mxCell id="tD0wrIK7UTj4f8NjUOcW-3" value="Empresa" style="whiteSpace=wrap;html=1;" vertex="1" parent="1">
          <mxGeometry x="280" y="280" width="120" height="60" as="geometry" />
        </mxCell>
        <mxCell id="te2sezCe_KsdoY2xWf5c-2" style="edgeStyle=orthogonalEdgeStyle;rounded=0;orthogonalLoop=1;jettySize=auto;html=1;entryX=0;entryY=0.5;entryDx=0;entryDy=0;endArrow=none;endFill=0;" edge="1" parent="1" source="tD0wrIK7UTj4f8NjUOcW-4" target="te2sezCe_KsdoY2xWf5c-1">
          <mxGeometry relative="1" as="geometry" />
        </mxCell>
        <mxCell id="te2sezCe_KsdoY2xWf5c-5" style="edgeStyle=orthogonalEdgeStyle;rounded=0;orthogonalLoop=1;jettySize=auto;html=1;endArrow=none;endFill=0;" edge="1" parent="1" source="tD0wrIK7UTj4f8NjUOcW-4" target="te2sezCe_KsdoY2xWf5c-4">
          <mxGeometry relative="1" as="geometry" />
        </mxCell>
        <mxCell id="tD0wrIK7UTj4f8NjUOcW-4" value="Clientes" style="whiteSpace=wrap;html=1;" vertex="1" parent="1">
          <mxGeometry x="280" y="500" width="120" height="60" as="geometry" />
        </mxCell>
        <mxCell id="ZFgzHFRs6T8P76JOSRrM-1" value="Colaborador" style="whiteSpace=wrap;html=1;" vertex="1" parent="1">
          <mxGeometry x="280" y="770" width="120" height="60" as="geometry" />
        </mxCell>
        <mxCell id="QojiN1X4jlWZFlVhOEEp-3" style="edgeStyle=orthogonalEdgeStyle;rounded=0;orthogonalLoop=1;jettySize=auto;html=1;entryX=0;entryY=0.5;entryDx=0;entryDy=0;endArrow=none;endFill=0;" edge="1" parent="1" source="2e9fS-BUwRRxfaYHLVj6-1" target="tD0wrIK7UTj4f8NjUOcW-4">
          <mxGeometry relative="1" as="geometry" />
        </mxCell>
        <mxCell id="2e9fS-BUwRRxfaYHLVj6-1" value="Verificação" style="ellipse;whiteSpace=wrap;html=1;" vertex="1" parent="1">
          <mxGeometry x="130" y="510" width="80" height="40" as="geometry" />
        </mxCell>
        <mxCell id="QojiN1X4jlWZFlVhOEEp-2" style="edgeStyle=orthogonalEdgeStyle;rounded=0;orthogonalLoop=1;jettySize=auto;html=1;entryX=0;entryY=0.5;entryDx=0;entryDy=0;endArrow=none;endFill=0;" edge="1" parent="1" source="2e9fS-BUwRRxfaYHLVj6-2" target="ZFgzHFRs6T8P76JOSRrM-1">
          <mxGeometry relative="1" as="geometry" />
        </mxCell>
        <mxCell id="2e9fS-BUwRRxfaYHLVj6-2" value="Encerrar conserto" style="ellipse;whiteSpace=wrap;html=1;" vertex="1" parent="1">
          <mxGeometry x="110" y="780" width="100" height="40" as="geometry" />
        </mxCell>
        <mxCell id="2e9fS-BUwRRxfaYHLVj6-4" value="Equipamentos" style="whiteSpace=wrap;html=1;" vertex="1" parent="1">
          <mxGeometry x="630" y="500" width="120" height="60" as="geometry" />
        </mxCell>
        <mxCell id="2e9fS-BUwRRxfaYHLVj6-8" style="edgeStyle=orthogonalEdgeStyle;rounded=0;orthogonalLoop=1;jettySize=auto;html=1;entryX=0.5;entryY=0;entryDx=0;entryDy=0;endArrow=none;endFill=0;" edge="1" parent="1" source="2e9fS-BUwRRxfaYHLVj6-5" target="tD0wrIK7UTj4f8NjUOcW-4">
          <mxGeometry relative="1" as="geometry" />
        </mxCell>
        <mxCell id="2e9fS-BUwRRxfaYHLVj6-5" value="Possui" style="rhombus;whiteSpace=wrap;html=1;" vertex="1" parent="1">
          <mxGeometry x="300" y="380" width="80" height="80" as="geometry" />
        </mxCell>
        <mxCell id="te2sezCe_KsdoY2xWf5c-3" style="edgeStyle=orthogonalEdgeStyle;rounded=0;orthogonalLoop=1;jettySize=auto;html=1;entryX=0;entryY=0.5;entryDx=0;entryDy=0;endArrow=none;endFill=0;" edge="1" parent="1" source="te2sezCe_KsdoY2xWf5c-1" target="2e9fS-BUwRRxfaYHLVj6-4">
          <mxGeometry relative="1" as="geometry" />
        </mxCell>
        <mxCell id="te2sezCe_KsdoY2xWf5c-1" value="Possui" style="rhombus;whiteSpace=wrap;html=1;" vertex="1" parent="1">
          <mxGeometry x="480" y="490" width="80" height="80" as="geometry" />
        </mxCell>
        <mxCell id="QojiN1X4jlWZFlVhOEEp-1" style="edgeStyle=orthogonalEdgeStyle;rounded=0;orthogonalLoop=1;jettySize=auto;html=1;endArrow=none;endFill=0;" edge="1" parent="1" source="te2sezCe_KsdoY2xWf5c-4" target="ZFgzHFRs6T8P76JOSRrM-1">
          <mxGeometry relative="1" as="geometry" />
        </mxCell>
        <mxCell id="te2sezCe_KsdoY2xWf5c-4" value="Possui" style="rhombus;whiteSpace=wrap;html=1;" vertex="1" parent="1">
          <mxGeometry x="300" y="620" width="80" height="80" as="geometry" />
        </mxCell>
        <mxCell id="u3ghLXdOtqxaSakSCkBX-1" value="1" style="text;html=1;align=center;verticalAlign=middle;resizable=0;points=[];autosize=1;strokeColor=none;fillColor=none;" vertex="1" parent="1">
          <mxGeometry x="340" y="340" width="30" height="30" as="geometry" />
        </mxCell>
        <mxCell id="6WbMcXkVC6e-iUIb-Z9l-1" value="N" style="text;html=1;align=center;verticalAlign=middle;resizable=0;points=[];autosize=1;strokeColor=none;fillColor=none;" vertex="1" parent="1">
          <mxGeometry x="340" y="470" width="30" height="30" as="geometry" />
        </mxCell>
        <mxCell id="6WbMcXkVC6e-iUIb-Z9l-2" value="1" style="text;html=1;align=center;verticalAlign=middle;resizable=0;points=[];autosize=1;strokeColor=none;fillColor=none;" vertex="1" parent="1">
          <mxGeometry x="395" y="488" width="30" height="30" as="geometry" />
        </mxCell>
        <mxCell id="6WbMcXkVC6e-iUIb-Z9l-3" value="N" style="text;html=1;align=center;verticalAlign=middle;resizable=0;points=[];autosize=1;strokeColor=none;fillColor=none;" vertex="1" parent="1">
          <mxGeometry x="600" y="488" width="30" height="30" as="geometry" />
        </mxCell>
        <mxCell id="sZdeEbIRCUUWDItiN6JR-1" value="1" style="text;html=1;align=center;verticalAlign=middle;resizable=0;points=[];autosize=1;strokeColor=none;fillColor=none;" vertex="1" parent="1">
          <mxGeometry x="340" y="740" width="30" height="30" as="geometry" />
        </mxCell>
        <mxCell id="sZdeEbIRCUUWDItiN6JR-2" value="N" style="text;html=1;align=center;verticalAlign=middle;resizable=0;points=[];autosize=1;strokeColor=none;fillColor=none;" vertex="1" parent="1">
          <mxGeometry x="340" y="560" width="30" height="30" as="geometry" />
        </mxCell>
      </root>
    </mxGraphModel>
  </diagram>
</mxfile>
